<svg width="285" height="320" viewBox="0 0 285 320" fill="none" xmlns="http://www.w3.org/2000/svg">
<path d="M183.5 160C183.5 165.249 183.438 170.439 183.316 175.558C175.868 180.287 168.117 184.985 160.111 189.607C152.819 193.817 145.578 197.813 138.436 201.579C133.905 199.106 129.341 196.545 124.758 193.898C118.294 190.166 111.997 186.385 105.891 182.578C105.633 175.203 105.5 167.664 105.5 160C105.5 150.03 105.725 140.273 106.157 130.81C111.01 127.833 115.978 124.875 121.048 121.948C126.863 118.591 132.646 115.37 138.371 112.293C146.732 116.629 155.24 121.285 163.821 126.239C170.438 130.06 176.882 133.933 183.124 137.831C183.372 145.077 183.5 152.477 183.5 160ZM160.611 190.473C168.426 185.961 175.999 181.377 183.286 176.761C182.873 192.805 181.875 208.142 180.379 222.413C167.301 216.583 153.555 209.796 139.49 202.153C146.454 198.471 153.508 194.574 160.611 190.473ZM181.34 222.84C182.878 208.249 183.897 192.547 184.302 176.116C194.18 169.833 203.525 163.496 212.23 157.209C229.525 169.508 244.411 181.655 256.075 192.866C266.829 203.202 274.822 212.723 279.445 220.818C284.089 228.948 285.241 235.473 282.654 239.954C280.067 244.434 273.84 246.699 264.478 246.743C255.156 246.787 242.913 244.624 228.586 240.48C214.546 236.419 198.531 230.462 181.34 222.84ZM138.428 202.714C152.823 210.555 166.894 217.506 180.269 223.459C178.277 242.088 175.437 258.876 171.945 273.017C168.377 287.474 164.135 299.137 159.444 307.174C154.732 315.247 149.665 319.5 144.5 319.5C139.335 319.5 134.269 315.247 129.557 307.174C124.866 299.137 120.624 287.474 117.055 273.017C113.2 257.403 110.138 238.562 108.137 217.577C117.932 213.13 128.076 208.162 138.428 202.714ZM28.7935 188.575C39.1094 178.659 51.9458 168.012 66.7399 157.175C78.2982 165.781 91.1161 174.529 104.91 183.145C105.329 194.876 106.063 206.196 107.074 216.961C88.5391 225.347 71.2834 231.849 56.2832 236.189C41.9553 240.333 29.7129 242.496 20.3912 242.452C11.0285 242.408 4.80129 240.143 2.21456 235.663C-0.372179 231.182 0.780046 224.657 5.42333 216.527C10.0463 208.432 18.0401 198.911 28.7935 188.575ZM104.868 181.939C91.41 173.513 78.894 164.967 67.5849 156.557C79.0307 148.209 91.6303 139.755 105.127 131.443C104.715 140.71 104.5 150.254 104.5 160C104.5 167.442 104.626 174.766 104.868 181.939ZM105.182 130.235C91.3488 138.735 78.4451 147.388 66.7456 155.932C53.5064 146.042 41.9481 136.35 32.5028 127.271C21.7495 116.935 13.7557 107.414 9.13272 99.3195C4.48944 91.1893 3.33721 84.6639 5.92395 80.1835C8.51068 75.7032 14.7379 73.4384 24.1006 73.3944C33.4223 73.3507 45.6647 75.513 59.9926 79.6576C74.138 83.7495 90.2892 89.7655 107.628 97.4701C106.537 107.875 105.711 118.843 105.182 130.235ZM106.213 129.603C106.736 118.589 107.538 107.979 108.588 97.8982C117.865 102.043 127.475 106.668 137.295 111.736C131.757 114.72 126.168 117.838 120.548 121.082C115.672 123.897 110.89 126.741 106.213 129.603ZM138.363 111.163C128.211 105.908 118.277 101.125 108.699 96.8522C110.691 78.0982 113.544 61.2029 117.055 46.9828C120.624 32.5265 124.866 20.863 129.557 12.8256C134.269 4.75301 139.335 0.5 144.5 0.5C149.665 0.5 154.732 4.75301 159.444 12.8256C164.135 20.863 168.377 32.5265 171.945 46.9828C175.089 59.7145 177.705 74.5906 179.648 91.0253C166.479 96.781 152.596 103.529 138.363 111.163ZM164.321 125.373C155.936 120.532 147.618 115.975 139.439 111.721C153.34 104.284 166.898 97.699 179.77 92.0636C181.38 105.94 182.513 120.911 183.081 136.626C177.007 132.842 170.746 129.083 164.321 125.373ZM184.105 137.265C183.54 121.166 182.384 105.835 180.728 91.6454C196.746 84.6728 211.683 79.1828 224.876 75.3665C239.204 71.2218 251.446 69.0596 260.768 69.1033C270.131 69.1472 276.358 71.412 278.945 75.8924C281.532 80.3727 280.379 86.8981 275.736 95.0284C271.113 103.123 263.119 112.644 252.366 122.98C241.543 133.383 227.946 144.591 212.225 155.979C203.429 149.742 194.021 143.471 184.105 137.265ZM211.368 156.598C202.926 162.686 193.881 168.823 184.331 174.912C184.443 170.002 184.5 165.028 184.5 160C184.5 152.7 184.38 145.513 184.146 138.471C193.733 144.485 202.839 150.558 211.368 156.598ZM108.038 216.524C107.064 206.089 106.352 195.131 105.934 183.783C111.871 187.476 117.986 191.144 124.258 194.764C128.651 197.301 133.027 199.76 137.373 202.138C127.352 207.399 117.53 212.206 108.038 216.524Z" stroke="white"/>
</svg>
